#define close_small_width 14
#define close_small_height 14
static unsigned char close_small_bits[] = {
   0x00, 0x00, 0x0c, 0x0c, 0x1e, 0x1e, 0x1e, 0x1e, 0x0c, 0x0c, 0x00, 0x00,
   0x00, 0x00, 0x00, 0x00, 0x00, 0x00, 0x0c, 0x0c, 0x1e, 0x1e, 0x1e, 0x1e,
   0x0c, 0x0c, 0x00, 0x00 };
