#define iconify_width 14
#define iconify_height 14
static unsigned char iconify_bits[] = {
   0x00, 0x00, 0x00, 0x00, 0x00, 0x00, 0x00, 0x00, 0x00, 0x00, 0x00, 0x00,
   0x00, 0x00, 0x00, 0x00, 0x00, 0x00, 0x00, 0x0c, 0x00, 0x1e, 0x00, 0x1e,
   0x00, 0x0c, 0x00, 0x00 };
